# xmcd
#
# Track frame offsets: 
#        150
#        15637
#        32512
#        50277
#        63212
#        76225
#        94957
#        114987
#        130565
#        148785
#        171980
#        186877
#
# Disc length: 2742 seconds
#
# Revision: 2
# Processed by: cddbd v1.5.2PL0 Copyright (c) Steve Scherf et al.
# Submitted via: ExactAudioCopy v0.99pb4
#
DISCID=950ab40c
DTITLE=The Nighthawks - Still Wild
DYEAR=1999
DGENRE=Blues
TTITLE0=Tiger In Your Tank
TTITLE1=The Wild One
TTITLE2=Cry Like A Man
TTITLE3=Read Way Back
TTITLE4=Guard My Heart
TTITLE5=Jump Into My Fire
TTITLE6=Nobody But You
TTITLE7=I Don't Play
TTITLE8=Washed My Hands
TTITLE9=That's The Way Love Is
TTITLE10=Illustrated Man
TTITLE11=Slow Dance
EXTD=
EXTT0=
EXTT1=
EXTT2=
EXTT3=
EXTT4=
EXTT5=
EXTT6=
EXTT7=
EXTT8=
EXTT9=
EXTT10=
EXTT11=
PLAYORDER=
